<svg xmlns="http://www.w3.org/2000/svg" xmlns:xlink="http://www.w3.org/1999/xlink" fill="none" version="1.1" width="2715" height="1200" viewBox="0 0 2715 1200"><g style="mix-blend-mode:passthrough"><path d="M454,239Q556,240,611,286.5Q666,333,666,421Q666,432,664,456L660,489Q648,580,596.5,633Q545,686,458,700L662,990L518,990L328,705L191,705L156,990L38,990L130,239L454,239ZM413,597Q470,596,501.5,573Q533,550,540,494L546,451Q547,444,547,432Q547,387,521,367.5Q495,348,444,347L235,347L204,597L413,597ZM899,990Q824,990,779,947.5Q734,905,734,837Q734,822,735,814Q744,752,767,715.5Q790,679,833.5,662.5Q877,646,948,646L1116,646L1117,638Q1118,633,1118,624Q1118,585,1092,561Q1066,537,1011,537L985,537Q896,537,825,542L840,440L869,438Q885,437,925.5,435Q966,433,996,433L1023,433Q1126,433,1179,482Q1232,531,1232,613Q1232,622,1230,644L1189,990L899,990ZM849,826Q849,855,865.5,870.5Q882,886,913,886L1087,886L1104,746L938,745Q900,744,877.5,759.5Q855,775,850,814L849,826ZM1287,1200L1381,433L1632,433Q1736,433,1788,481Q1840,529,1840,623Q1840,647,1837,673L1828,749Q1799,990,1562,990L1428,990L1402,1200L1287,1200ZM1575,883Q1695,883,1711,752L1721,670Q1723,650,1723,642Q1723,540,1619,540L1483,540L1441,883L1575,883ZM1981,358L1996,238L2127,238L2112,358L1981,358ZM2027,990L1912,990L1981,433L2096,433L2027,990ZM2178,674Q2207,433,2436,433L2567,433L2593,219L2708,219L2614,990L2373,990Q2166,990,2166,800Q2166,777,2169,750L2178,674ZM2512,883L2554,538L2423,538Q2310,538,2294,671L2284,753Q2282,773,2282,782Q2282,883,2386,883L2512,883Z" fill="#FFFFFF" fill-opacity="1"/></g></svg>